<svg xmlns="http://www.w3.org/2000/svg" xmlns:xlink="http://www.w3.org/1999/xlink" id="body_3" preserveAspectRatio="xMinYMin meet" viewBox="0 0 1943 1256"><defs><clipPath id="1"><path d="M0 942L0 -0.8599854L0 -0.8599854L1457.14 -0.8599854L1457.14 -0.8599854L1457.14 942L1457.14 942L0 942z" /></clipPath><clipPath id="2"><path d="M22.429 366.48L1415.139 366.48L1415.139 366.48L1415.139 64.42999L1415.139 64.42999L22.429 64.42999z" /></clipPath><clipPath id="3"><path d="M22.429 366.48L1415.139 366.48L1415.139 366.48L1415.139 64.42999L1415.139 64.42999L22.429 64.42999z" /></clipPath><clipPath id="4"><path d="M22.429 366.48L1415.139 366.48L1415.139 366.48L1415.139 64.42999L1415.139 64.42999L22.429 64.42999z" /></clipPath><clipPath id="5"><path d="M22.429 366.48L1415.139 366.48L1415.139 366.48L1415.139 64.42999L1415.139 64.42999L22.429 64.42999z" /></clipPath><clipPath id="6"><path d="M22.429 366.48L1415.139 366.48L1415.139 366.48L1415.139 64.42999L1415.139 64.42999L22.429 64.42999z" /></clipPath><clipPath id="7"><path d="M22.429 366.48L1415.139 366.48L1415.139 366.48L1415.139 64.42999L1415.139 64.42999L22.429 64.42999z" /></clipPath><clipPath id="8"><path d="M22.429 366.48L1415.139 366.48L1415.139 366.48L1415.139 64.42999L1415.139 64.42999L22.429 64.42999z" /></clipPath><clipPath id="9"><path d="M22.429 366.48L1415.139 366.48L1415.139 366.48L1415.139 64.42999L1415.139 64.42999L22.429 64.42999z" /></clipPath><clipPath id="10"><path d="M22.429 366.48L1415.139 366.48L1415.139 366.48L1415.139 64.42999L1415.139 64.42999L22.429 64.42999z" /></clipPath><clipPath id="11"><path d="M22.429 366.48L1415.139 366.48L1415.139 366.48L1415.139 64.42999L1415.139 64.42999L22.429 64.42999z" /></clipPath><clipPath id="12"><path d="M22.429 77.85999L1415.139 77.85999L1415.139 77.85999L1415.139 64.43097L1415.139 64.43097L22.429 64.43097z" /></clipPath><clipPath id="13"><path d="M22.429 77.85999L1415.139 77.85999L1415.139 77.85999L1415.139 64.43097L1415.139 64.43097L22.429 64.43097z" /></clipPath><clipPath id="14"><path d="M22.429 77.85999L1415.139 77.85999L1415.139 77.85999L1415.139 64.43097L1415.139 64.43097L22.429 64.43097z" /></clipPath><clipPath id="15"><path d="M22.429 77.85999L1415.139 77.85999L1415.139 77.85999L1415.139 64.43097L1415.139 64.43097L22.429 64.43097z" /></clipPath><clipPath id="16"><path d="M22.429 77.85999L1415.139 77.85999L1415.139 77.85999L1415.139 64.43097L1415.139 64.43097L22.429 64.43097z" /></clipPath><clipPath id="17"><path d="M22.429 77.85999L1415.139 77.85999L1415.139 77.85999L1415.139 64.43097L1415.139 64.43097L22.429 64.43097z" /></clipPath><clipPath id="18"><path d="M22.429 77.85999L1415.139 77.85999L1415.139 77.85999L1415.139 64.43097L1415.139 64.43097L22.429 64.43097z" /></clipPath><clipPath id="19"><path d="M22.429 77.85999L1415.139 77.85999L1415.139 77.85999L1415.139 64.43097L1415.139 64.43097L22.429 64.43097z" /></clipPath><clipPath id="20"><path d="M22.429 92.31L1415.139 92.31L1415.139 92.31L1415.139 78.88098L1415.139 78.88098L22.429 78.88098z" /></clipPath><clipPath id="21"><path d="M22.429 92.31L1415.139 92.31L1415.139 92.31L1415.139 78.88098L1415.139 78.88098L22.429 78.88098z" /></clipPath><clipPath id="22"><path d="M22.429 92.31L1415.139 92.31L1415.139 92.31L1415.139 78.88098L1415.139 78.88098L22.429 78.88098z" /></clipPath><clipPath id="23"><path d="M22.429 92.31L1415.139 92.31L1415.139 92.31L1415.139 78.88098L1415.139 78.88098L22.429 78.88098z" /></clipPath><clipPath id="24"><path d="M22.429 92.31L1415.139 92.31L1415.139 92.31L1415.139 78.88098L1415.139 78.88098L22.429 78.88098z" /></clipPath><clipPath id="25"><path d="M22.429 92.31L1415.139 92.31L1415.139 92.31L1415.139 78.88098L1415.139 78.88098L22.429 78.88098z" /></clipPath><clipPath id="26"><path d="M22.429 92.31L1415.139 92.31L1415.139 92.31L1415.139 78.88098L1415.139 78.88098L22.429 78.88098z" /></clipPath><clipPath id="27"><path d="M22.429 92.31L1415.139 92.31L1415.139 92.31L1415.139 78.88098L1415.139 78.88098L22.429 78.88098z" /></clipPath><clipPath id="28"><path d="M22.429 106.74L1415.139 106.74L1415.139 106.74L1415.139 93.31097L1415.139 93.31097L22.429 93.31097z" /></clipPath><clipPath id="29"><path d="M22.429 106.74L1415.139 106.74L1415.139 106.74L1415.139 93.31097L1415.139 93.31097L22.429 93.31097z" /></clipPath><clipPath id="30"><path d="M22.429 106.74L1415.139 106.74L1415.139 106.74L1415.139 93.31097L1415.139 93.31097L22.429 93.31097z" /></clipPath><clipPath id="31"><path d="M22.429 106.74L1415.139 106.74L1415.139 106.74L1415.139 93.31097L1415.139 93.31097L22.429 93.31097z" /></clipPath><clipPath id="32"><path d="M22.429 106.74L1415.139 106.74L1415.139 106.74L1415.139 93.31097L1415.139 93.31097L22.429 93.31097z" /></clipPath><clipPath id="33"><path d="M22.429 106.74L1415.139 106.74L1415.139 106.74L1415.139 93.31097L1415.139 93.31097L22.429 93.31097z" /></clipPath><clipPath id="34"><path d="M22.429 106.74L1415.139 106.74L1415.139 106.74L1415.139 93.31097L1415.139 93.31097L22.429 93.31097z" /></clipPath><clipPath id="35"><path d="M22.429 106.74L1415.139 106.74L1415.139 106.74L1415.139 93.31097L1415.139 93.31097L22.429 93.31097z" /></clipPath><clipPath id="36"><path d="M22.429 106.74L1415.139 106.74L1415.139 106.74L1415.139 93.31097L1415.139 93.31097L22.429 93.31097z" /></clipPath><clipPath id="37"><path d="M22.429 121.17L1415.139 121.17L1415.139 121.17L1415.139 107.741L1415.139 107.741L22.429 107.741z" /></clipPath><clipPath id="38"><path d="M22.429 121.17L1415.139 121.17L1415.139 121.17L1415.139 107.741L1415.139 107.741L22.429 107.741z" /></clipPath><clipPath id="39"><path d="M22.429 121.17L1415.139 121.17L1415.139 121.17L1415.139 107.741L1415.139 107.741L22.429 107.741z" /></clipPath><clipPath id="40"><path d="M22.429 121.17L1415.139 121.17L1415.139 121.17L1415.139 107.741L1415.139 107.741L22.429 107.741z" /></clipPath><clipPath id="41"><path d="M22.429 121.17L1415.139 121.17L1415.139 121.17L1415.139 107.741L1415.139 107.741L22.429 107.741z" /></clipPath><clipPath id="42"><path d="M22.429 121.17L1415.139 121.17L1415.139 121.17L1415.139 107.741L1415.139 107.741L22.429 107.741z" /></clipPath><clipPath id="43"><path d="M22.429 121.17L1415.139 121.17L1415.139 121.17L1415.139 107.741L1415.139 107.741L22.429 107.741z" /></clipPath><clipPath id="44"><path d="M22.429 121.17L1415.139 121.17L1415.139 121.17L1415.139 107.741L1415.139 107.741L22.429 107.741z" /></clipPath><clipPath id="45"><path d="M22.429 121.17L1415.139 121.17L1415.139 121.17L1415.139 107.741L1415.139 107.741L22.429 107.741z" /></clipPath><clipPath id="46"><path d="M22.429 135.6L1415.139 135.6L1415.139 135.6L1415.139 122.171L1415.139 122.171L22.429 122.171z" /></clipPath><clipPath id="47"><path d="M22.429 135.6L1415.139 135.6L1415.139 135.6L1415.139 122.171L1415.139 122.171L22.429 122.171z" /></clipPath><clipPath id="48"><path d="M22.429 135.6L1415.139 135.6L1415.139 135.6L1415.139 122.171L1415.139 122.171L22.429 122.171z" /></clipPath><clipPath id="49"><path d="M22.429 135.6L1415.139 135.6L1415.139 135.6L1415.139 122.171L1415.139 122.171L22.429 122.171z" /></clipPath><clipPath id="50"><path d="M22.429 135.6L1415.139 135.6L1415.139 135.6L1415.139 122.171L1415.139 122.171L22.429 122.171z" /></clipPath><clipPath id="51"><path d="M22.429 135.6L1415.139 135.6L1415.139 135.6L1415.139 122.171L1415.139 122.171L22.429 122.171z" /></clipPath><clipPath id="52"><path d="M22.429 135.6L1415.139 135.6L1415.139 135.6L1415.139 122.171L1415.139 122.171L22.429 122.171z" /></clipPath><clipPath id="53"><path d="M22.429 135.6L1415.139 135.6L1415.139 135.6L1415.139 122.171L1415.139 122.171L22.429 122.171z" /></clipPath><clipPath id="54"><path d="M22.429 135.6L1415.139 135.6L1415.139 135.6L1415.139 122.171L1415.139 122.171L22.429 122.171z" /></clipPath><clipPath id="55"><path d="M22.429 150.02L1415.139 150.02L1415.139 150.02L1415.139 136.591L1415.139 136.591L22.429 136.591z" /></clipPath><clipPath id="56"><path d="M22.429 150.02L1415.139 150.02L1415.139 150.02L1415.139 136.591L1415.139 136.591L22.429 136.591z" /></clipPath><clipPath id="57"><path d="M22.429 150.02L1415.139 150.02L1415.139 150.02L1415.139 136.591L1415.139 136.591L22.429 136.591z" /></clipPath><clipPath id="58"><path d="M22.429 150.02L1415.139 150.02L1415.139 150.02L1415.139 136.591L1415.139 136.591L22.429 136.591z" /></clipPath><clipPath id="59"><path d="M22.429 150.02L1415.139 150.02L1415.139 150.02L1415.139 136.591L1415.139 136.591L22.429 136.591z" /></clipPath><clipPath id="60"><path d="M22.429 150.02L1415.139 150.02L1415.139 150.02L1415.139 136.591L1415.139 136.591L22.429 136.591z" /></clipPath><clipPath id="61"><path d="M22.429 150.02L1415.139 150.02L1415.139 150.02L1415.139 136.591L1415.139 136.591L22.429 136.591z" /></clipPath><clipPath id="62"><path d="M22.429 150.02L1415.139 150.02L1415.139 150.02L1415.139 136.591L1415.139 136.591L22.429 136.591z" /></clipPath><clipPath id="63"><path d="M22.429 164.45L1415.139 164.45L1415.139 164.45L1415.139 151.021L1415.139 151.021L22.429 151.021z" /></clipPath><clipPath id="64"><path d="M22.429 164.45L1415.139 164.45L1415.139 164.45L1415.139 151.021L1415.139 151.021L22.429 151.021z" /></clipPath><clipPath id="65"><path d="M22.429 164.45L1415.139 164.45L1415.139 164.45L1415.139 151.021L1415.139 151.021L22.429 151.021z" /></clipPath><clipPath id="66"><path d="M22.429 164.45L1415.139 164.45L1415.139 164.45L1415.139 151.021L1415.139 151.021L22.429 151.021z" /></clipPath><clipPath id="67"><path d="M22.429 164.45L1415.139 164.45L1415.139 164.45L1415.139 151.021L1415.139 151.021L22.429 151.021z" /></clipPath><clipPath id="68"><path d="M22.429 164.45L1415.139 164.45L1415.139 164.45L1415.139 151.021L1415.139 151.021L22.429 151.021z" /></clipPath><clipPath id="69"><path d="M22.429 164.45L1415.139 164.45L1415.139 164.45L1415.139 151.021L1415.139 151.021L22.429 151.021z" /></clipPath><clipPath id="70"><path d="M22.429 164.45L1415.139 164.45L1415.139 164.45L1415.139 151.021L1415.139 151.021L22.429 151.021z" /></clipPath><clipPath id="71"><path d="M22.429 178.88L1415.139 178.88L1415.139 178.88L1415.139 165.451L1415.139 165.451L22.429 165.451z" /></clipPath><clipPath id="72"><path d="M22.429 178.88L1415.139 178.88L1415.139 178.88L1415.139 165.451L1415.139 165.451L22.429 165.451z" /></clipPath><clipPath id="73"><path d="M22.429 178.88L1415.139 178.88L1415.139 178.88L1415.139 165.451L1415.139 165.451L22.429 165.451z" /></clipPath><clipPath id="74"><path d="M22.429 178.88L1415.139 178.88L1415.139 178.88L1415.139 165.451L1415.139 165.451L22.429 165.451z" /></clipPath><clipPath id="75"><path d="M22.429 178.88L1415.139 178.88L1415.139 178.88L1415.139 165.451L1415.139 165.451L22.429 165.451z" /></clipPath><clipPath id="76"><path d="M22.429 178.88L1415.139 178.88L1415.139 178.88L1415.139 165.451L1415.139 165.451L22.429 165.451z" /></clipPath><clipPath id="77"><path d="M22.429 178.88L1415.139 178.88L1415.139 178.88L1415.139 165.451L1415.139 165.451L22.429 165.451z" /></clipPath><clipPath id="78"><path d="M22.429 178.88L1415.139 178.88L1415.139 178.88L1415.139 165.451L1415.139 165.451L22.429 165.451z" /></clipPath><clipPath id="79"><path d="M22.429 193.31L1415.139 193.31L1415.139 193.31L1415.139 179.881L1415.139 179.881L22.429 179.881z" /></clipPath><clipPath id="80"><path d="M22.429 193.31L1415.139 193.31L1415.139 193.31L1415.139 179.881L1415.139 179.881L22.429 179.881z" /></clipPath><clipPath id="81"><path d="M22.429 193.31L1415.139 193.31L1415.139 193.31L1415.139 179.881L1415.139 179.881L22.429 179.881z" /></clipPath><clipPath id="82"><path d="M22.429 193.31L1415.139 193.31L1415.139 193.31L1415.139 179.881L1415.139 179.881L22.429 179.881z" /></clipPath><clipPath id="83"><path d="M22.429 193.31L1415.139 193.31L1415.139 193.31L1415.139 179.881L1415.139 179.881L22.429 179.881z" /></clipPath><clipPath id="84"><path d="M22.429 193.31L1415.139 193.31L1415.139 193.31L1415.139 179.881L1415.139 179.881L22.429 179.881z" /></clipPath><clipPath id="85"><path d="M22.429 193.31L1415.139 193.31L1415.139 193.31L1415.139 179.881L1415.139 179.881L22.429 179.881z" /></clipPath><clipPath id="86"><path d="M22.429 193.31L1415.139 193.31L1415.139 193.31L1415.139 179.881L1415.139 179.881L22.429 179.881z" /></clipPath><clipPath id="87"><path d="M22.429 207.74L1415.139 207.74L1415.139 207.74L1415.139 194.311L1415.139 194.311L22.429 194.311z" /></clipPath><clipPath id="88"><path d="M22.429 207.74L1415.139 207.74L1415.139 207.74L1415.139 194.311L1415.139 194.311L22.429 194.311z" /></clipPath><clipPath id="89"><path d="M22.429 207.74L1415.139 207.74L1415.139 207.74L1415.139 194.311L1415.139 194.311L22.429 194.311z" /></clipPath><clipPath id="90"><path d="M22.429 207.74L1415.139 207.74L1415.139 207.74L1415.139 194.311L1415.139 194.311L22.429 194.311z" /></clipPath><clipPath id="91"><path d="M22.429 207.74L1415.139 207.74L1415.139 207.74L1415.139 194.311L1415.139 194.311L22.429 194.311z" /></clipPath><clipPath id="92"><path d="M22.429 207.74L1415.139 207.74L1415.139 207.74L1415.139 194.311L1415.139 194.311L22.429 194.311z" /></clipPath><clipPath id="93"><path d="M22.429 207.74L1415.139 207.74L1415.139 207.74L1415.139 194.311L1415.139 194.311L22.429 194.311z" /></clipPath><clipPath id="94"><path d="M22.429 207.74L1415.139 207.74L1415.139 207.74L1415.139 194.311L1415.139 194.311L22.429 194.311z" /></clipPath><clipPath id="95"><path d="M22.429 222.17L1415.139 222.17L1415.139 222.17L1415.139 208.741L1415.139 208.741L22.429 208.741z" /></clipPath><clipPath id="96"><path d="M22.429 222.17L1415.139 222.17L1415.139 222.17L1415.139 208.741L1415.139 208.741L22.429 208.741z" /></clipPath><clipPath id="97"><path d="M22.429 222.17L1415.139 222.17L1415.139 222.17L1415.139 208.741L1415.139 208.741L22.429 208.741z" /></clipPath><clipPath id="98"><path d="M22.429 222.17L1415.139 222.17L1415.139 222.17L1415.139 208.741L1415.139 208.741L22.429 208.741z" /></clipPath><clipPath id="99"><path d="M22.429 222.17L1415.139 222.17L1415.139 222.17L1415.139 208.741L1415.139 208.741L22.429 208.741z" /></clipPath><clipPath id="100"><path d="M22.429 222.17L1415.139 222.17L1415.139 222.17L1415.139 208.741L1415.139 208.741L22.429 208.741z" /></clipPath><clipPath id="101"><path d="M22.429 222.17L1415.139 222.17L1415.139 222.17L1415.139 208.741L1415.139 208.741L22.429 208.741z" /></clipPath><clipPath id="102"><path d="M22.429 222.17L1415.139 222.17L1415.139 222.17L1415.139 208.741L1415.139 208.741L22.429 208.741z" /></clipPath><clipPath id="103"><path d="M22.429 222.17L1415.139 222.17L1415.139 222.17L1415.139 208.741L1415.139 208.741L22.429 208.741z" /></clipPath><clipPath id="104"><path d="M22.429 236.6L1415.139 236.6L1415.139 236.6L1415.139 223.171L1415.139 223.171L22.429 223.171z" /></clipPath><clipPath id="105"><path d="M22.429 236.6L1415.139 236.6L1415.139 236.6L1415.139 223.171L1415.139 223.171L22.429 223.171z" /></clipPath><clipPath id="106"><path d="M22.429 236.6L1415.139 236.6L1415.139 236.6L1415.139 223.171L1415.139 223.171L22.429 223.171z" /></clipPath><clipPath id="107"><path d="M22.429 236.6L1415.139 236.6L1415.139 236.6L1415.139 223.171L1415.139 223.171L22.429 223.171z" /></clipPath><clipPath id="108"><path d="M22.429 236.6L1415.139 236.6L1415.139 236.6L1415.139 223.171L1415.139 223.171L22.429 223.171z" /></clipPath><clipPath id="109"><path d="M22.429 236.6L1415.139 236.6L1415.139 236.6L1415.139 223.171L1415.139 223.171L22.429 223.171z" /></clipPath><clipPath id="110"><path d="M22.429 236.6L1415.139 236.6L1415.139 236.6L1415.139 223.171L1415.139 223.171L22.429 223.171z" /></clipPath><clipPath id="111"><path d="M22.429 236.6L1415.139 236.6L1415.139 236.6L1415.139 223.171L1415.139 223.171L22.429 223.171z" /></clipPath><clipPath id="112"><path d="M22.429 251.05L1415.139 251.05L1415.139 251.05L1415.139 237.621L1415.139 237.621L22.429 237.621z" /></clipPath><clipPath id="113"><path d="M22.429 251.05L1415.139 251.05L1415.139 251.05L1415.139 237.621L1415.139 237.621L22.429 237.621z" /></clipPath><clipPath id="114"><path d="M22.429 251.05L1415.139 251.05L1415.139 251.05L1415.139 237.621L1415.139 237.621L22.429 237.621z" /></clipPath><clipPath id="115"><path d="M22.429 251.05L1415.139 251.05L1415.139 251.05L1415.139 237.621L1415.139 237.621L22.429 237.621z" /></clipPath><clipPath id="116"><path d="M22.429 251.05L1415.139 251.05L1415.139 251.05L1415.139 237.621L1415.139 237.621L22.429 237.621z" /></clipPath><clipPath id="117"><path d="M22.429 251.05L1415.139 251.05L1415.139 251.05L1415.139 237.621L1415.139 237.621L22.429 237.621z" /></clipPath><clipPath id="118"><path d="M22.429 251.05L1415.139 251.05L1415.139 251.05L1415.139 237.621L1415.139 237.621L22.429 237.621z" /></clipPath><clipPath id="119"><path d="M22.429 251.05L1415.139 251.05L1415.139 251.05L1415.139 237.621L1415.139 237.621L22.429 237.621z" /></clipPath><clipPath id="120"><path d="M22.429 265.48L1415.139 265.48L1415.139 265.48L1415.139 252.051L1415.139 252.051L22.429 252.051z" /></clipPath><clipPath id="121"><path d="M22.429 265.48L1415.139 265.48L1415.139 265.48L1415.139 252.051L1415.139 252.051L22.429 252.051z" /></clipPath><clipPath id="122"><path d="M22.429 265.48L1415.139 265.48L1415.139 265.48L1415.139 252.051L1415.139 252.051L22.429 252.051z" /></clipPath><clipPath id="123"><path d="M22.429 265.48L1415.139 265.48L1415.139 265.48L1415.139 252.051L1415.139 252.051L22.429 252.051z" /></clipPath><clipPath id="124"><path d="M22.429 265.48L1415.139 265.48L1415.139 265.48L1415.139 252.051L1415.139 252.051L22.429 252.051z" /></clipPath><clipPath id="125"><path d="M22.429 265.48L1415.139 265.48L1415.139 265.48L1415.139 252.051L1415.139 252.051L22.429 252.051z" /></clipPath><clipPath id="126"><path d="M22.429 265.48L1415.139 265.48L1415.139 265.48L1415.139 252.051L1415.139 252.051L22.429 252.051z" /></clipPath><clipPath id="127"><path d="M22.429 265.48L1415.139 265.48L1415.139 265.48L1415.139 252.051L1415.139 252.051L22.429 252.051z" /></clipPath><clipPath id="128"><path d="M22.429 279.9L1415.139 279.9L1415.139 279.9L1415.139 266.471L1415.139 266.471L22.429 266.471z" /></clipPath><clipPath id="129"><path d="M22.429 279.9L1415.139 279.9L1415.139 279.9L1415.139 266.471L1415.139 266.471L22.429 266.471z" /></clipPath><clipPath id="130"><path d="M22.429 279.9L1415.139 279.9L1415.139 279.9L1415.139 266.471L1415.139 266.471L22.429 266.471z" /></clipPath><clipPath id="131"><path d="M22.429 279.9L1415.139 279.9L1415.139 279.9L1415.139 266.471L1415.139 266.471L22.429 266.471z" /></clipPath><clipPath id="132"><path d="M22.429 279.9L1415.139 279.9L1415.139 279.9L1415.139 266.471L1415.139 266.471L22.429 266.471z" /></clipPath><clipPath id="133"><path d="M22.429 279.9L1415.139 279.9L1415.139 279.9L1415.139 266.471L1415.139 266.471L22.429 266.471z" /></clipPath><clipPath id="134"><path d="M22.429 279.9L1415.139 279.9L1415.139 279.9L1415.139 266.471L1415.139 266.471L22.429 266.471z" /></clipPath><clipPath id="135"><path d="M22.429 279.9L1415.139 279.9L1415.139 279.9L1415.139 266.471L1415.139 266.471L22.429 266.471z" /></clipPath><clipPath id="136"><path d="M22.429 279.9L1415.139 279.9L1415.139 279.9L1415.139 266.471L1415.139 266.471L22.429 266.471z" /></clipPath><clipPath id="137"><path d="M22.429 294.33L1415.139 294.33L1415.139 294.33L1415.139 280.901L1415.139 280.901L22.429 280.901z" /></clipPath><clipPath id="138"><path d="M22.429 294.33L1415.139 294.33L1415.139 294.33L1415.139 280.901L1415.139 280.901L22.429 280.901z" /></clipPath><clipPath id="139"><path d="M22.429 294.33L1415.139 294.33L1415.139 294.33L1415.139 280.901L1415.139 280.901L22.429 280.901z" /></clipPath><clipPath id="140"><path d="M22.429 294.33L1415.139 294.33L1415.139 294.33L1415.139 280.901L1415.139 280.901L22.429 280.901z" /></clipPath><clipPath id="141"><path d="M22.429 294.33L1415.139 294.33L1415.139 294.33L1415.139 280.901L1415.139 280.901L22.429 280.901z" /></clipPath><clipPath id="142"><path d="M22.429 294.33L1415.139 294.33L1415.139 294.33L1415.139 280.901L1415.139 280.901L22.429 280.901z" /></clipPath><clipPath id="143"><path d="M22.429 294.33L1415.139 294.33L1415.139 294.33L1415.139 280.901L1415.139 280.901L22.429 280.901z" /></clipPath><clipPath id="144"><path d="M22.429 294.33L1415.139 294.33L1415.139 294.33L1415.139 280.901L1415.139 280.901L22.429 280.901z" /></clipPath><clipPath id="145"><path d="M22.429 308.76L1415.139 308.76L1415.139 308.76L1415.139 295.331L1415.139 295.331L22.429 295.331z" /></clipPath><clipPath id="146"><path d="M22.429 308.76L1415.139 308.76L1415.139 308.76L1415.139 295.331L1415.139 295.331L22.429 295.331z" /></clipPath><clipPath id="147"><path d="M22.429 308.76L1415.139 308.76L1415.139 308.76L1415.139 295.331L1415.139 295.331L22.429 295.331z" /></clipPath><clipPath id="148"><path d="M22.429 308.76L1415.139 308.76L1415.139 308.76L1415.139 295.331L1415.139 295.331L22.429 295.331z" /></clipPath><clipPath id="149"><path d="M22.429 308.76L1415.139 308.76L1415.139 308.76L1415.139 295.331L1415.139 295.331L22.429 295.331z" /></clipPath><clipPath id="150"><path d="M22.429 308.76L1415.139 308.76L1415.139 308.76L1415.139 295.331L1415.139 295.331L22.429 295.331z" /></clipPath><clipPath id="151"><path d="M22.429 308.76L1415.139 308.76L1415.139 308.76L1415.139 295.331L1415.139 295.331L22.429 295.331z" /></clipPath><clipPath id="152"><path d="M22.429 308.76L1415.139 308.76L1415.139 308.76L1415.139 295.331L1415.139 295.331L22.429 295.331z" /></clipPath><clipPath id="153"><path d="M22.429 323.19L1415.139 323.19L1415.139 323.19L1415.139 309.761L1415.139 309.761L22.429 309.761z" /></clipPath><clipPath id="154"><path d="M22.429 323.19L1415.139 323.19L1415.139 323.19L1415.139 309.761L1415.139 309.761L22.429 309.761z" /></clipPath><clipPath id="155"><path d="M22.429 323.19L1415.139 323.19L1415.139 323.19L1415.139 309.761L1415.139 309.761L22.429 309.761z" /></clipPath><clipPath id="156"><path d="M22.429 323.19L1415.139 323.19L1415.139 323.19L1415.139 309.761L1415.139 309.761L22.429 309.761z" /></clipPath><clipPath id="157"><path d="M22.429 323.19L1415.139 323.19L1415.139 323.19L1415.139 309.761L1415.139 309.761L22.429 309.761z" /></clipPath><clipPath id="158"><path d="M22.429 323.19L1415.139 323.19L1415.139 323.19L1415.139 309.761L1415.139 309.761L22.429 309.761z" /></clipPath><clipPath id="159"><path d="M22.429 323.19L1415.139 323.19L1415.139 323.19L1415.139 309.761L1415.139 309.761L22.429 309.761z" /></clipPath><clipPath id="160"><path d="M22.429 323.19L1415.139 323.19L1415.139 323.19L1415.139 309.761L1415.139 309.761L22.429 309.761z" /></clipPath><clipPath id="161"><path d="M22.429 337.62L1415.139 337.62L1415.139 337.62L1415.139 324.191L1415.139 324.191L22.429 324.191z" /></clipPath><clipPath id="162"><path d="M22.429 337.62L1415.139 337.62L1415.139 337.62L1415.139 324.191L1415.139 324.191L22.429 324.191z" /></clipPath><clipPath id="163"><path d="M22.429 337.62L1415.139 337.62L1415.139 337.62L1415.139 324.191L1415.139 324.191L22.429 324.191z" /></clipPath><clipPath id="164"><path d="M22.429 337.62L1415.139 337.62L1415.139 337.62L1415.139 324.191L1415.139 324.191L22.429 324.191z" /></clipPath><clipPath id="165"><path d="M22.429 337.62L1415.139 337.62L1415.139 337.62L1415.139 324.191L1415.139 324.191L22.429 324.191z" /></clipPath><clipPath id="166"><path d="M22.429 337.62L1415.139 337.62L1415.139 337.62L1415.139 324.191L1415.139 324.191L22.429 324.191z" /></clipPath><clipPath id="167"><path d="M22.429 337.62L1415.139 337.62L1415.139 337.62L1415.139 324.191L1415.139 324.191L22.429 324.191z" /></clipPath><clipPath id="168"><path d="M22.429 337.62L1415.139 337.62L1415.139 337.62L1415.139 324.191L1415.139 324.191L22.429 324.191z" /></clipPath><clipPath id="169"><path d="M22.429 352.05L1415.139 352.05L1415.139 352.05L1415.139 338.621L1415.139 338.621L22.429 338.621z" /></clipPath><clipPath id="170"><path d="M22.429 352.05L1415.139 352.05L1415.139 352.05L1415.139 338.621L1415.139 338.621L22.429 338.621z" /></clipPath><clipPath id="171"><path d="M22.429 352.05L1415.139 352.05L1415.139 352.05L1415.139 338.621L1415.139 338.621L22.429 338.621z" /></clipPath><clipPath id="172"><path d="M22.429 352.05L1415.139 352.05L1415.139 352.05L1415.139 338.621L1415.139 338.621L22.429 338.621z" /></clipPath><clipPath id="173"><path d="M22.429 352.05L1415.139 352.05L1415.139 352.05L1415.139 338.621L1415.139 338.621L22.429 338.621z" /></clipPath><clipPath id="174"><path d="M22.429 352.05L1415.139 352.05L1415.139 352.05L1415.139 338.621L1415.139 338.621L22.429 338.621z" /></clipPath><clipPath id="175"><path d="M22.429 352.05L1415.139 352.05L1415.139 352.05L1415.139 338.621L1415.139 338.621L22.429 338.621z" /></clipPath><clipPath id="176"><path d="M22.429 352.05L1415.139 352.05L1415.139 352.05L1415.139 338.621L1415.139 338.621L22.429 338.621z" /></clipPath><clipPath id="177"><path d="M22.429 352.05L1415.139 352.05L1415.139 352.05L1415.139 338.621L1415.139 338.621L22.429 338.621z" /></clipPath><clipPath id="178"><path d="M22.429 352.05L1415.139 352.05L1415.139 352.05L1415.139 338.621L1415.139 338.621L22.429 338.621z" /></clipPath><clipPath id="179"><path d="M22.429 367.48L1416.139 367.48L1416.139 367.48L1416.139 64.42999L1416.139 64.42999L22.429 64.42999z" /></clipPath></defs><g transform="matrix(1.333333 0 0 1.333333 0 0)"><g><g clip-path="url(#1)"><g clip-path="url(#2)"><path transform="matrix(1 0 0 -1 0 942)" d="M21.857 849.12L1415.717 849.12L1415.717 849.12L1415.717 863.715L1415.717 863.715L21.857 863.715z" stroke="none" fill="#DDEBF7" fill-rule="evenodd" /></g><g clip-path="url(#3)"><path transform="matrix(1 0 0 -1 0 942)" d="M21.857 820.26L1415.717 820.26L1415.717 820.26L1415.717 834.831L1415.717 834.831L21.857 834.831z" stroke="none" fill="#DDEBF7" fill-rule="evenodd" /></g><g clip-path="url(#4)"><path transform="matrix(1 0 0 -1 0 942)" d="M21.857 791.4L1415.717 791.4L1415.717 791.4L1415.717 805.971L1415.717 805.971L21.857 805.971z" stroke="none" fill="#DDEBF7" fill-rule="evenodd" /></g><g clip-path="url(#5)"><path transform="matrix(1 0 0 -1 0 942)" d="M21.857 762.55L1415.717 762.55L1415.717 762.55L1415.717 777.121L1415.717 777.121L21.857 777.121z" stroke="none" fill="#DDEBF7" fill-rule="evenodd" /></g><g clip-path="url(#6)"><path transform="matrix(1 0 0 -1 0 942)" d="M21.857 733.69L1415.717 733.69L1415.717 733.69L1415.717 748.261L1415.717 748.261L21.857 748.261z" stroke="none" fill="#DDEBF7" fill-rule="evenodd" /></g><g clip-path="url(#7)"><path transform="matrix(1 0 0 -1 0 942)" d="M21.857 704.81L1415.717 704.81L1415.717 704.81L1415.717 719.405L1415.717 719.405L21.857 719.405z" stroke="none" fill="#DDEBF7" fill-rule="evenodd" /></g><g clip-path="url(#8)"><path transform="matrix(1 0 0 -1 0 942)" d="M21.857 675.95L1415.717 675.95L1415.717 675.95L1415.717 690.521L1415.717 690.521L21.857 690.521z" stroke="none" fill="#DDEBF7" fill-rule="evenodd" /></g><g clip-path="url(#9)"><path transform="matrix(1 0 0 -1 0 942)" d="M21.857 647.1L1415.717 647.1L1415.717 647.1L1415.717 661.671L1415.717 661.671L21.857 661.671z" stroke="none" fill="#DDEBF7" fill-rule="evenodd" /></g><g clip-path="url(#10)"><path transform="matrix(1 0 0 -1 0 942)" d="M21.857 618.24L1415.717 618.24L1415.717 618.24L1415.717 632.811L1415.717 632.811L21.857 632.811z" stroke="none" fill="#DDEBF7" fill-rule="evenodd" /></g><g clip-path="url(#11)"><path transform="matrix(1 0 0 -1 0 942)" d="M21.857 589.38L1415.717 589.38L1415.717 589.38L1415.717 603.951L1415.717 603.951L21.857 603.951z" stroke="none" fill="#DDEBF7" fill-rule="evenodd" /></g><g clip-path="url(#12)"></g><g clip-path="url(#13)"></g><g clip-path="url(#14)"></g><g clip-path="url(#15)"></g><g clip-path="url(#16)"></g><g clip-path="url(#17)"></g><g clip-path="url(#18)"></g><g clip-path="url(#19)"></g><g clip-path="url(#20)"></g><g clip-path="url(#21)"></g><g clip-path="url(#22)"></g><g clip-path="url(#23)"></g><g clip-path="url(#24)"></g><g clip-path="url(#25)"></g><g clip-path="url(#26)"></g><g clip-path="url(#27)"></g><g clip-path="url(#28)"></g><g clip-path="url(#29)"></g><g clip-path="url(#30)"></g><g clip-path="url(#31)"></g><g clip-path="url(#32)"></g><g clip-path="url(#33)"></g><g clip-path="url(#34)"></g><g clip-path="url(#35)"></g><g clip-path="url(#36)"></g><g clip-path="url(#37)"></g><g clip-path="url(#38)"></g><g clip-path="url(#39)"></g><g clip-path="url(#40)"></g><g clip-path="url(#41)"></g><g clip-path="url(#42)"></g><g clip-path="url(#43)"></g><g clip-path="url(#44)"></g><g clip-path="url(#45)"></g><g clip-path="url(#46)"></g><g clip-path="url(#47)"></g><g clip-path="url(#48)"></g><g clip-path="url(#49)"></g><g clip-path="url(#50)"></g><g clip-path="url(#51)"></g><g clip-path="url(#52)"></g><g clip-path="url(#53)"></g><g clip-path="url(#54)"></g><g clip-path="url(#55)"></g><g clip-path="url(#56)"></g><g clip-path="url(#57)"></g><g clip-path="url(#58)"></g><g clip-path="url(#59)"></g><g clip-path="url(#60)"></g><g clip-path="url(#61)"></g><g clip-path="url(#62)"></g><g clip-path="url(#63)"></g><g clip-path="url(#64)"></g><g clip-path="url(#65)"></g><g clip-path="url(#66)"></g><g clip-path="url(#67)"></g><g clip-path="url(#68)"></g><g clip-path="url(#69)"></g><g clip-path="url(#70)"></g><g clip-path="url(#71)"></g><g clip-path="url(#72)"></g><g clip-path="url(#73)"></g><g clip-path="url(#74)"></g><g clip-path="url(#75)"></g><g clip-path="url(#76)"></g><g clip-path="url(#77)"></g><g clip-path="url(#78)"></g><g clip-path="url(#79)"></g><g clip-path="url(#80)"></g><g clip-path="url(#81)"></g><g clip-path="url(#82)"></g><g clip-path="url(#83)"></g><g clip-path="url(#84)"></g><g clip-path="url(#85)"></g><g clip-path="url(#86)"></g><g clip-path="url(#87)"></g><g clip-path="url(#88)"></g><g clip-path="url(#89)"></g><g clip-path="url(#90)"></g><g clip-path="url(#91)"></g><g clip-path="url(#92)"></g><g clip-path="url(#93)"></g><g clip-path="url(#94)"></g><g clip-path="url(#95)"></g><g clip-path="url(#96)"></g><g clip-path="url(#97)"></g><g clip-path="url(#98)"></g><g clip-path="url(#99)"></g><g clip-path="url(#100)"></g><g clip-path="url(#101)"></g><g clip-path="url(#102)"></g><g clip-path="url(#103)"></g><g clip-path="url(#104)"></g><g clip-path="url(#105)"></g><g clip-path="url(#106)"></g><g clip-path="url(#107)"></g><g clip-path="url(#108)"></g><g clip-path="url(#109)"></g><g clip-path="url(#110)"></g><g clip-path="url(#111)"></g><g clip-path="url(#112)"></g><g clip-path="url(#113)"></g><g clip-path="url(#114)"></g><g clip-path="url(#115)"></g><g clip-path="url(#116)"></g><g clip-path="url(#117)"></g><g clip-path="url(#118)"></g><g clip-path="url(#119)"></g><g clip-path="url(#120)"></g><g clip-path="url(#121)"></g><g clip-path="url(#122)"></g><g clip-path="url(#123)"></g><g clip-path="url(#124)"></g><g clip-path="url(#125)"></g><g clip-path="url(#126)"></g><g clip-path="url(#127)"></g><g clip-path="url(#128)"></g><g clip-path="url(#129)"></g><g clip-path="url(#130)"></g><g clip-path="url(#131)"></g><g clip-path="url(#132)"></g><g clip-path="url(#133)"></g><g clip-path="url(#134)"></g><g clip-path="url(#135)"></g><g clip-path="url(#136)"></g><g clip-path="url(#137)"></g><g clip-path="url(#138)"></g><g clip-path="url(#139)"></g><g clip-path="url(#140)"></g><g clip-path="url(#141)"></g><g clip-path="url(#142)"></g><g clip-path="url(#143)"></g><g clip-path="url(#144)"></g><g clip-path="url(#145)"></g><g clip-path="url(#146)"></g><g clip-path="url(#147)"></g><g clip-path="url(#148)"></g><g clip-path="url(#149)"></g><g clip-path="url(#150)"></g><g clip-path="url(#151)"></g><g clip-path="url(#152)"></g><g clip-path="url(#153)"></g><g clip-path="url(#154)"></g><g clip-path="url(#155)"></g><g clip-path="url(#156)"></g><g clip-path="url(#157)"></g><g clip-path="url(#158)"></g><g clip-path="url(#159)"></g><g clip-path="url(#160)"></g><g clip-path="url(#161)"></g><g clip-path="url(#162)"></g><g clip-path="url(#163)"></g><g clip-path="url(#164)"></g><g clip-path="url(#165)"></g><g clip-path="url(#166)"></g><g clip-path="url(#167)"></g><g clip-path="url(#168)"></g><g clip-path="url(#169)"></g><g clip-path="url(#170)"></g><g clip-path="url(#171)"></g><g clip-path="url(#172)"></g><g clip-path="url(#173)"></g><g clip-path="url(#174)"></g><g clip-path="url(#175)"></g><g clip-path="url(#176)"></g><g clip-path="url(#177)"></g><g clip-path="url(#178)"></g><g clip-path="url(#179)"><path transform="matrix(1 0 0 -1 0 942)" d="M22.071 878.07L887.6 878.07" stroke="#000000" stroke-width="0.14286" stroke-linecap="square" fill="none" /><path transform="matrix(1 0 0 -1 0 942)" d="M22 878L887.67 878L887.67 878L887.67 878.1429L887.67 878.1429L22 878.1429z" stroke="none" fill="#000000" fill-rule="evenodd" /><path transform="matrix(1 0 0 -1 0 942)" d="M889.74 878.07L1177.33 878.07" stroke="#000000" stroke-width="0.14286" stroke-linecap="square" fill="none" /><path transform="matrix(1 0 0 -1 0 942)" d="M889.67 878L1177.41 878L1177.41 878L1177.41 878.1429L1177.41 878.1429L889.67 878.1429z" stroke="none" fill="#000000" fill-rule="evenodd" /><path transform="matrix(1 0 0 -1 0 942)" d="M22.071 863.64L887.6 863.64" stroke="#000000" stroke-width="0.14286" stroke-linecap="square" fill="none" /><path transform="matrix(1 0 0 -1 0 942)" d="M22 863.55L887.67 863.55L887.67 863.55L887.67 863.7167L887.67 863.7167L22 863.7167z" stroke="none" fill="#000000" fill-rule="evenodd" /><path transform="matrix(1 0 0 -1 0 942)" d="M889.74 863.64L1177.33 863.64" stroke="#000000" stroke-width="0.14286" stroke-linecap="square" fill="none" /><path transform="matrix(1 0 0 -1 0 942)" d="M889.67 863.55L1177.41 863.55L1177.41 863.55L1177.41 863.7167L1177.41 863.7167L889.67 863.7167z" stroke="none" fill="#000000" fill-rule="evenodd" /><path transform="matrix(1 0 0 -1 0 942)" d="M22.071 849.19L887.6 849.19" stroke="#000000" stroke-width="0.14286" stroke-linecap="square" fill="none" /><path transform="matrix(1 0 0 -1 0 942)" d="M22 849.12L887.67 849.12L887.67 849.12L887.67 849.2629L887.67 849.2629L22 849.2629z" stroke="none" fill="#000000" fill-rule="evenodd" /><path transform="matrix(1 0 0 -1 0 942)" d="M889.74 849.19L1177.33 849.19" stroke="#000000" stroke-width="0.14286" stroke-linecap="square" fill="none" /><path transform="matrix(1 0 0 -1 0 942)" d="M889.67 849.12L1177.41 849.12L1177.41 849.12L1177.41 849.2629L1177.41 849.2629L889.67 849.2629z" stroke="none" fill="#000000" fill-rule="evenodd" /><path transform="matrix(1 0 0 -1 0 942)" d="M22.071 834.76L887.6 834.76" stroke="#000000" stroke-width="0.14286" stroke-linecap="square" fill="none" /><path transform="matrix(1 0 0 -1 0 942)" d="M22 834.69L887.67 834.69L887.67 834.69L887.67 834.8328L887.67 834.8328L22 834.8328z" stroke="none" fill="#000000" fill-rule="evenodd" /><path transform="matrix(1 0 0 -1 0 942)" d="M889.74 834.76L1177.33 834.76" stroke="#000000" stroke-width="0.14286" stroke-linecap="square" fill="none" /><path transform="matrix(1 0 0 -1 0 942)" d="M889.67 834.69L1177.41 834.69L1177.41 834.69L1177.41 834.8328L1177.41 834.8328L889.67 834.8328z" stroke="none" fill="#000000" fill-rule="evenodd" /><path transform="matrix(1 0 0 -1 0 942)" d="M22.071 820.33L887.6 820.33" stroke="#000000" stroke-width="0.14286" stroke-linecap="square" fill="none" /><path transform="matrix(1 0 0 -1 0 942)" d="M22 820.26L887.67 820.26L887.67 820.26L887.67 820.4028L887.67 820.4028L22 820.4028z" stroke="none" fill="#000000" fill-rule="evenodd" /><path transform="matrix(1 0 0 -1 0 942)" d="M889.74 820.33L1177.33 820.33" stroke="#000000" stroke-width="0.14286" stroke-linecap="square" fill="none" /><path transform="matrix(1 0 0 -1 0 942)" d="M889.67 820.26L1177.41 820.26L1177.41 820.26L1177.41 820.4028L1177.41 820.4028L889.67 820.4028z" stroke="none" fill="#000000" fill-rule="evenodd" /><path transform="matrix(1 0 0 -1 0 942)" d="M22.071 805.9L887.6 805.9" stroke="#000000" stroke-width="0.14286" stroke-linecap="square" fill="none" /><path transform="matrix(1 0 0 -1 0 942)" d="M22 805.83L887.67 805.83L887.67 805.83L887.67 805.9728L887.67 805.9728L22 805.9728z" stroke="none" fill="#000000" fill-rule="evenodd" /><path transform="matrix(1 0 0 -1 0 942)" d="M889.74 805.9L1177.33 805.9" stroke="#000000" stroke-width="0.14286" stroke-linecap="square" fill="none" /><path transform="matrix(1 0 0 -1 0 942)" d="M889.67 805.83L1177.41 805.83L1177.41 805.83L1177.41 805.9728L1177.41 805.9728L889.67 805.9728z" stroke="none" fill="#000000" fill-rule="evenodd" /><path transform="matrix(1 0 0 -1 0 942)" d="M22.071 791.48L887.6 791.48" stroke="#000000" stroke-width="0.14286" stroke-linecap="square" fill="none" /><path transform="matrix(1 0 0 -1 0 942)" d="M22 791.4L887.67 791.4L887.67 791.4L887.67 791.5429L887.67 791.5429L22 791.5429z" stroke="none" fill="#000000" fill-rule="evenodd" /><path transform="matrix(1 0 0 -1 0 942)" d="M889.74 791.48L1177.33 791.48" stroke="#000000" stroke-width="0.14286" stroke-linecap="square" fill="none" /><path transform="matrix(1 0 0 -1 0 942)" d="M889.67 791.4L1177.41 791.4L1177.41 791.4L1177.41 791.5429L1177.41 791.5429L889.67 791.5429z" stroke="none" fill="#000000" fill-rule="evenodd" /><path transform="matrix(1 0 0 -1 0 942)" d="M22.071 777.05L887.6 777.05" stroke="#000000" stroke-width="0.14286" stroke-linecap="square" fill="none" /><path transform="matrix(1 0 0 -1 0 942)" d="M22 776.98L887.67 776.98L887.67 776.98L887.67 777.1228L887.67 777.1228L22 777.1228z" stroke="none" fill="#000000" fill-rule="evenodd" /><path transform="matrix(1 0 0 -1 0 942)" d="M889.74 777.05L1177.33 777.05" stroke="#000000" stroke-width="0.14286" stroke-linecap="square" fill="none" /><path transform="matrix(1 0 0 -1 0 942)" d="M889.67 776.98L1177.41 776.98L1177.41 776.98L1177.41 777.1228L1177.41 777.1228L889.67 777.1228z" stroke="none" fill="#000000" fill-rule="evenodd" /><path transform="matrix(1 0 0 -1 0 942)" d="M22.071 762.62L887.6 762.62" stroke="#000000" stroke-width="0.14286" stroke-linecap="square" fill="none" /><path transform="matrix(1 0 0 -1 0 942)" d="M22 762.55L887.67 762.55L887.67 762.55L887.67 762.6928L887.67 762.6928L22 762.6928z" stroke="none" fill="#000000" fill-rule="evenodd" /><path transform="matrix(1 0 0 -1 0 942)" d="M889.74 762.62L1177.33 762.62" stroke="#000000" stroke-width="0.14286" stroke-linecap="square" fill="none" /><path transform="matrix(1 0 0 -1 0 942)" d="M889.67 762.55L1177.41 762.55L1177.41 762.55L1177.41 762.6928L1177.41 762.6928L889.67 762.6928z" stroke="none" fill="#000000" fill-rule="evenodd" /><path transform="matrix(1 0 0 -1 0 942)" d="M488.4 877.93L488.4 777.05" stroke="#000000" stroke-width="0.14286" stroke-linecap="square" fill="none" /><path transform="matrix(1 0 0 -1 0 942)" d="M488.33 776.98L488.4728 776.98L488.4728 776.98L488.4728 878L488.4728 878L488.33 878z" stroke="none" fill="#000000" fill-rule="evenodd" /><path transform="matrix(1 0 0 -1 0 942)" d="M22.071 748.19L887.6 748.19" stroke="#000000" stroke-width="0.14286" stroke-linecap="square" fill="none" /><path transform="matrix(1 0 0 -1 0 942)" d="M22 748.12L887.67 748.12L887.67 748.12L887.67 748.2628L887.67 748.2628L22 748.2628z" stroke="none" fill="#000000" fill-rule="evenodd" /><path transform="matrix(1 0 0 -1 0 942)" d="M889.74 748.19L1177.33 748.19" stroke="#000000" stroke-width="0.14286" stroke-linecap="square" fill="none" /><path transform="matrix(1 0 0 -1 0 942)" d="M889.67 748.12L1177.41 748.12L1177.41 748.12L1177.41 748.2628L1177.41 748.2628L889.67 748.2628z" stroke="none" fill="#000000" fill-rule="evenodd" /><path transform="matrix(1 0 0 -1 0 942)" d="M22.071 733.76L887.6 733.76" stroke="#000000" stroke-width="0.14286" stroke-linecap="square" fill="none" /><path transform="matrix(1 0 0 -1 0 942)" d="M22 733.69L887.67 733.69L887.67 733.69L887.67 733.8328L887.67 733.8328L22 733.8328z" stroke="none" fill="#000000" fill-rule="evenodd" /><path transform="matrix(1 0 0 -1 0 942)" d="M889.74 733.76L1177.33 733.76" stroke="#000000" stroke-width="0.14286" stroke-linecap="square" fill="none" /><path transform="matrix(1 0 0 -1 0 942)" d="M889.67 733.69L1177.41 733.69L1177.41 733.69L1177.41 733.8328L1177.41 733.8328L889.67 733.8328z" stroke="none" fill="#000000" fill-rule="evenodd" /><path transform="matrix(1 0 0 -1 0 942)" d="M22.071 719.33L887.6 719.33" stroke="#000000" stroke-width="0.14286" stroke-linecap="square" fill="none" /><path transform="matrix(1 0 0 -1 0 942)" d="M22 719.26L887.67 719.26L887.67 719.26L887.67 719.4029L887.67 719.4029L22 719.4029z" stroke="none" fill="#000000" fill-rule="evenodd" /><path transform="matrix(1 0 0 -1 0 942)" d="M889.74 719.33L1177.33 719.33" stroke="#000000" stroke-width="0.14286" stroke-linecap="square" fill="none" /><path transform="matrix(1 0 0 -1 0 942)" d="M889.67 719.26L1177.41 719.26L1177.41 719.26L1177.41 719.4029L1177.41 719.4029L889.67 719.4029z" stroke="none" fill="#000000" fill-rule="evenodd" /><path transform="matrix(1 0 0 -1 0 942)" d="M22.071 704.88L887.6 704.88" stroke="#000000" stroke-width="0.14286" stroke-linecap="square" fill="none" /><path transform="matrix(1 0 0 -1 0 942)" d="M22 704.81L887.67 704.81L887.67 704.81L887.67 704.9528L887.67 704.9528L22 704.9528z" stroke="none" fill="#000000" fill-rule="evenodd" /><path transform="matrix(1 0 0 -1 0 942)" d="M889.74 704.88L1177.33 704.88" stroke="#000000" stroke-width="0.14286" stroke-linecap="square" fill="none" /><path transform="matrix(1 0 0 -1 0 942)" d="M889.67 704.81L1177.41 704.81L1177.41 704.81L1177.41 704.9528L1177.41 704.9528L889.67 704.9528z" stroke="none" fill="#000000" fill-rule="evenodd" /><path transform="matrix(1 0 0 -1 0 942)" d="M22.071 690.45L887.6 690.45" stroke="#000000" stroke-width="0.14286" stroke-linecap="square" fill="none" /><path transform="matrix(1 0 0 -1 0 942)" d="M22 690.38L887.67 690.38L887.67 690.38L887.67 690.5229L887.67 690.5229L22 690.5229z" stroke="none" fill="#000000" fill-rule="evenodd" /><path transform="matrix(1 0 0 -1 0 942)" d="M889.74 690.45L1177.33 690.45" stroke="#000000" stroke-width="0.14286" stroke-linecap="square" fill="none" /><path transform="matrix(1 0 0 -1 0 942)" d="M889.67 690.38L1177.41 690.38L1177.41 690.38L1177.41 690.5229L1177.41 690.5229L889.67 690.5229z" stroke="none" fill="#000000" fill-rule="evenodd" /><path transform="matrix(1 0 0 -1 0 942)" d="M22.071 676.02L887.6 676.02" stroke="#000000" stroke-width="0.14286" stroke-linecap="square" fill="none" /><path transform="matrix(1 0 0 -1 0 942)" d="M22 675.95L887.67 675.95L887.67 675.95L887.67 676.0928L887.67 676.0928L22 676.0928z" stroke="none" fill="#000000" fill-rule="evenodd" /><path transform="matrix(1 0 0 -1 0 942)" d="M889.74 676.02L1177.33 676.02" stroke="#000000" stroke-width="0.14286" stroke-linecap="square" fill="none" /><path transform="matrix(1 0 0 -1 0 942)" d="M889.67 675.95L1177.41 675.95L1177.41 675.95L1177.41 676.0928L1177.41 676.0928L889.67 676.0928z" stroke="none" fill="#000000" fill-rule="evenodd" /><path transform="matrix(1 0 0 -1 0 942)" d="M22.071 661.6L887.6 661.6" stroke="#000000" stroke-width="0.14286" stroke-linecap="square" fill="none" /><path transform="matrix(1 0 0 -1 0 942)" d="M22 661.52L887.67 661.52L887.67 661.52L887.67 661.6628L887.67 661.6628L22 661.6628z" stroke="none" fill="#000000" fill-rule="evenodd" /><path transform="matrix(1 0 0 -1 0 942)" d="M889.74 661.6L1177.33 661.6" stroke="#000000" stroke-width="0.14286" stroke-linecap="square" fill="none" /><path transform="matrix(1 0 0 -1 0 942)" d="M889.67 661.52L1177.41 661.52L1177.41 661.52L1177.41 661.6628L1177.41 661.6628L889.67 661.6628z" stroke="none" fill="#000000" fill-rule="evenodd" /><path transform="matrix(1 0 0 -1 0 942)" d="M22.071 647.17L887.6 647.17" stroke="#000000" stroke-width="0.14286" stroke-linecap="square" fill="none" /><path transform="matrix(1 0 0 -1 0 942)" d="M22 647.1L887.67 647.1L887.67 647.1L887.67 647.2429L887.67 647.2429L22 647.2429z" stroke="none" fill="#000000" fill-rule="evenodd" /><path transform="matrix(1 0 0 -1 0 942)" d="M889.74 647.17L1177.33 647.17" stroke="#000000" stroke-width="0.14286" stroke-linecap="square" fill="none" /><path transform="matrix(1 0 0 -1 0 942)" d="M889.67 647.1L1177.41 647.1L1177.41 647.1L1177.41 647.2429L1177.41 647.2429L889.67 647.2429z" stroke="none" fill="#000000" fill-rule="evenodd" /><path transform="matrix(1 0 0 -1 0 942)" d="M22.071 632.74L887.6 632.74" stroke="#000000" stroke-width="0.14286" stroke-linecap="square" fill="none" /><path transform="matrix(1 0 0 -1 0 942)" d="M22 632.67L887.67 632.67L887.67 632.67L887.67 632.8128L887.67 632.8128L22 632.8128z" stroke="none" fill="#000000" fill-rule="evenodd" /><path transform="matrix(1 0 0 -1 0 942)" d="M889.74 632.74L1177.33 632.74" stroke="#000000" stroke-width="0.14286" stroke-linecap="square" fill="none" /><path transform="matrix(1 0 0 -1 0 942)" d="M889.67 632.67L1177.41 632.67L1177.41 632.67L1177.41 632.8128L1177.41 632.8128L889.67 632.8128z" stroke="none" fill="#000000" fill-rule="evenodd" /><path transform="matrix(1 0 0 -1 0 942)" d="M22.071 618.31L887.6 618.31" stroke="#000000" stroke-width="0.14286" stroke-linecap="square" fill="none" /><path transform="matrix(1 0 0 -1 0 942)" d="M22 618.24L887.67 618.24L887.67 618.24L887.67 618.3828L887.67 618.3828L22 618.3828z" stroke="none" fill="#000000" fill-rule="evenodd" /><path transform="matrix(1 0 0 -1 0 942)" d="M889.74 618.31L1177.33 618.31" stroke="#000000" stroke-width="0.14286" stroke-linecap="square" fill="none" /><path transform="matrix(1 0 0 -1 0 942)" d="M889.67 618.24L1177.41 618.24L1177.41 618.24L1177.41 618.3828L1177.41 618.3828L889.67 618.3828z" stroke="none" fill="#000000" fill-rule="evenodd" /><path transform="matrix(1 0 0 -1 0 942)" d="M22.071 603.88L887.6 603.88" stroke="#000000" stroke-width="0.14286" stroke-linecap="square" fill="none" /><path transform="matrix(1 0 0 -1 0 942)" d="M22 603.81L887.67 603.81L887.67 603.81L887.67 603.9528L887.67 603.9528L22 603.9528z" stroke="none" fill="#000000" fill-rule="evenodd" /><path transform="matrix(1 0 0 -1 0 942)" d="M889.74 603.88L1177.33 603.88" stroke="#000000" stroke-width="0.14286" stroke-linecap="square" fill="none" /><path transform="matrix(1 0 0 -1 0 942)" d="M889.67 603.81L1177.41 603.81L1177.41 603.81L1177.41 603.9528L1177.41 603.9528L889.67 603.9528z" stroke="none" fill="#000000" fill-rule="evenodd" /><path transform="matrix(1 0 0 -1 0 942)" d="M22.071 589.45L887.6 589.45" stroke="#000000" stroke-width="0.14286" stroke-linecap="square" fill="none" /><path transform="matrix(1 0 0 -1 0 942)" d="M22 589.38L887.67 589.38L887.67 589.38L887.67 589.5228L887.67 589.5228L22 589.5228z" stroke="none" fill="#000000" fill-rule="evenodd" /><path transform="matrix(1 0 0 -1 0 942)" d="M889.74 589.45L1177.33 589.45" stroke="#000000" stroke-width="0.14286" stroke-linecap="square" fill="none" /><path transform="matrix(1 0 0 -1 0 942)" d="M889.67 589.38L1177.41 589.38L1177.41 589.38L1177.41 589.5228L1177.41 589.5228L889.67 589.5228z" stroke="none" fill="#000000" fill-rule="evenodd" /><path transform="matrix(1 0 0 -1 0 942)" d="M22.071 575.02L887.6 575.02" stroke="#000000" stroke-width="0.14286" stroke-linecap="square" fill="none" /><path transform="matrix(1 0 0 -1 0 942)" d="M22 574.95L887.67 574.95L887.67 574.95L887.67 575.0929L887.67 575.0929L22 575.0929z" stroke="none" fill="#000000" fill-rule="evenodd" /><path transform="matrix(1 0 0 -1 0 942)" d="M889.74 575.02L1177.33 575.02" stroke="#000000" stroke-width="0.14286" stroke-linecap="square" fill="none" /><path transform="matrix(1 0 0 -1 0 942)" d="M889.67 574.95L1177.41 574.95L1177.41 574.95L1177.41 575.0929L1177.41 575.0929L889.67 575.0929z" stroke="none" fill="#000000" fill-rule="evenodd" /><path transform="matrix(1 0 0 -1 0 942)" d="M21.929 878.07L21.929 575.02" stroke="#000000" stroke-width="0.14286" stroke-linecap="square" fill="none" /><path transform="matrix(1 0 0 -1 0 942)" d="M21.857 574.95L21.99986 574.95L21.99986 574.95L21.99986 878.14L21.99986 878.14L21.857 878.14z" stroke="none" fill="#000000" fill-rule="evenodd" /><path transform="matrix(1 0 0 -1 0 942)" d="M64.071 877.93L64.071 575.02" stroke="#000000" stroke-width="0.14286" stroke-linecap="square" fill="none" /><path transform="matrix(1 0 0 -1 0 942)" d="M64 574.95L64.14286 574.95L64.14286 574.95L64.14286 878L64.14286 878L64 878z" stroke="none" fill="#000000" fill-rule="evenodd" /><path transform="matrix(1 0 0 -1 0 942)" d="M187.52 877.93L187.52 575.02" stroke="#000000" stroke-width="0.14286" stroke-linecap="square" fill="none" /><path transform="matrix(1 0 0 -1 0 942)" d="M187.45 574.95L187.5928 574.95L187.5928 574.95L187.5928 878L187.5928 878L187.45 878z" stroke="none" fill="#000000" fill-rule="evenodd" /><path transform="matrix(1 0 0 -1 0 942)" d="M217.81 877.93L217.81 575.02" stroke="#000000" stroke-width="0.14286" stroke-linecap="square" fill="none" /><path transform="matrix(1 0 0 -1 0 942)" d="M217.74 574.95L217.8829 574.95L217.8829 574.95L217.8829 878L217.8829 878L217.74 878z" stroke="none" fill="#000000" fill-rule="evenodd" /><path transform="matrix(1 0 0 -1 0 942)" d="M258.38 877.93L258.38 575.02" stroke="#000000" stroke-width="0.14286" stroke-linecap="square" fill="none" /><path transform="matrix(1 0 0 -1 0 942)" d="M258.31 574.95L258.4529 574.95L258.4529 574.95L258.4529 878L258.4529 878L258.31 878z" stroke="none" fill="#000000" fill-rule="evenodd" /><path transform="matrix(1 0 0 -1 0 942)" d="M295.81 877.93L295.81 575.02" stroke="#000000" stroke-width="0.14286" stroke-linecap="square" fill="none" /><path transform="matrix(1 0 0 -1 0 942)" d="M295.74 574.95L295.8828 574.95L295.8828 574.95L295.8828 878L295.8828 878L295.74 878z" stroke="none" fill="#000000" fill-rule="evenodd" /><path transform="matrix(1 0 0 -1 0 942)" d="M332.38 877.93L332.38 575.02" stroke="#000000" stroke-width="0.14286" stroke-linecap="square" fill="none" /><path transform="matrix(1 0 0 -1 0 942)" d="M332.31 574.95L332.4529 574.95L332.4529 574.95L332.4529 878L332.4529 878L332.31 878z" stroke="none" fill="#000000" fill-rule="evenodd" /><path transform="matrix(1 0 0 -1 0 942)" d="M347.52 877.93L347.52 575.02" stroke="#000000" stroke-width="0.14286" stroke-linecap="square" fill="none" /><path transform="matrix(1 0 0 -1 0 942)" d="M347.45 574.95L347.5929 574.95L347.5929 574.95L347.5929 878L347.5929 878L347.45 878z" stroke="none" fill="#000000" fill-rule="evenodd" /><path transform="matrix(1 0 0 -1 0 942)" d="M488.4 748.05L488.4 575.02" stroke="#000000" stroke-width="0.14286" stroke-linecap="square" fill="none" /><path transform="matrix(1 0 0 -1 0 942)" d="M488.33 574.95L488.4728 574.95L488.4728 574.95L488.4728 748.12L488.4728 748.12L488.33 748.12z" stroke="none" fill="#000000" fill-rule="evenodd" /><path transform="matrix(1 0 0 -1 0 942)" d="M610.12 877.93L610.12 575.02" stroke="#000000" stroke-width="0.14286" stroke-linecap="square" fill="none" /><path transform="matrix(1 0 0 -1 0 942)" d="M610.05 574.95L610.1928 574.95L610.1928 574.95L610.1928 878L610.1928 878L610.05 878z" stroke="none" fill="#000000" fill-rule="evenodd" /><path transform="matrix(1 0 0 -1 0 942)" d="M748.57 877.93L748.57 575.02" stroke="#000000" stroke-width="0.14286" stroke-linecap="square" fill="none" /><path transform="matrix(1 0 0 -1 0 942)" d="M748.5 574.95L748.6429 574.95L748.6429 574.95L748.6429 878L748.6429 878L748.5 878z" stroke="none" fill="#000000" fill-rule="evenodd" /><path transform="matrix(1 0 0 -1 0 942)" d="M887.67 861.83L889.67 861.83L889.67 861.83L889.67 870.8538L889.67 870.8538L887.67 870.8538z" stroke="none" fill="#000000" fill-rule="evenodd" /><path transform="matrix(1 0 0 -1 0 942)" d="M887.67 837.83L889.67 837.83L889.67 837.83L889.67 846.83L889.67 846.83L887.67 846.83z" stroke="none" fill="#000000" fill-rule="evenodd" /><path transform="matrix(1 0 0 -1 0 942)" d="M887.67 813.83L889.67 813.83L889.67 813.83L889.67 822.83L889.67 822.83L887.67 822.83z" stroke="none" fill="#000000" fill-rule="evenodd" /><path transform="matrix(1 0 0 -1 0 942)" d="M887.67 789.83L889.67 789.83L889.67 789.83L889.67 798.83L889.67 798.83L887.67 798.83z" stroke="none" fill="#000000" fill-rule="evenodd" /><path transform="matrix(1 0 0 -1 0 942)" d="M887.67 765.83L889.67 765.83L889.67 765.83L889.67 774.83L889.67 774.83L887.67 774.83z" stroke="none" fill="#000000" fill-rule="evenodd" /><path transform="matrix(1 0 0 -1 0 942)" d="M887.67 741.83L889.67 741.83L889.67 741.83L889.67 750.83L889.67 750.83L887.67 750.83z" stroke="none" fill="#000000" fill-rule="evenodd" /><path transform="matrix(1 0 0 -1 0 942)" d="M887.67 717.83L889.67 717.83L889.67 717.83L889.67 726.83L889.67 726.83L887.67 726.83z" stroke="none" fill="#000000" fill-rule="evenodd" /><path transform="matrix(1 0 0 -1 0 942)" d="M887.67 693.81L889.67 693.81L889.67 693.81L889.67 702.81L889.67 702.81L887.67 702.81z" stroke="none" fill="#000000" fill-rule="evenodd" /><path transform="matrix(1 0 0 -1 0 942)" d="M887.67 669.81L889.67 669.81L889.67 669.81L889.67 678.81L889.67 678.81L887.67 678.81z" stroke="none" fill="#000000" fill-rule="evenodd" /><path transform="matrix(1 0 0 -1 0 942)" d="M887.67 645.81L889.67 645.81L889.67 645.81L889.67 654.81L889.67 654.81L887.67 654.81z" stroke="none" fill="#000000" fill-rule="evenodd" /><path transform="matrix(1 0 0 -1 0 942)" d="M887.67 621.81L889.67 621.81L889.67 621.81L889.67 630.81L889.67 630.81L887.67 630.81z" stroke="none" fill="#000000" fill-rule="evenodd" /><path transform="matrix(1 0 0 -1 0 942)" d="M887.67 597.81L889.67 597.81L889.67 597.81L889.67 606.81L889.67 606.81L887.67 606.81z" stroke="none" fill="#000000" fill-rule="evenodd" /><path transform="matrix(1 0 0 -1 0 942)" d="M887.67 574.95L889.67 574.95L889.67 574.95L889.67 582.8071L889.67 582.8071L887.67 582.8071z" stroke="none" fill="#000000" fill-rule="evenodd" /><path transform="matrix(1 0 0 -1 0 942)" d="M887.67 855.83L889.67 855.83L889.67 855.83L889.67 858.83L889.67 858.83L887.67 858.83z" stroke="none" fill="#000000" fill-rule="evenodd" /><path transform="matrix(1 0 0 -1 0 942)" d="M887.67 831.83L889.67 831.83L889.67 831.83L889.67 834.83L889.67 834.83L887.67 834.83z" stroke="none" fill="#000000" fill-rule="evenodd" /><path transform="matrix(1 0 0 -1 0 942)" d="M887.67 807.83L889.67 807.83L889.67 807.83L889.67 810.83L889.67 810.83L887.67 810.83z" stroke="none" fill="#000000" fill-rule="evenodd" /><path transform="matrix(1 0 0 -1 0 942)" d="M887.67 783.83L889.67 783.83L889.67 783.83L889.67 786.83L889.67 786.83L887.67 786.83z" stroke="none" fill="#000000" fill-rule="evenodd" /><path transform="matrix(1 0 0 -1 0 942)" d="M887.67 759.83L889.67 759.83L889.67 759.83L889.67 762.83L889.67 762.83L887.67 762.83z" stroke="none" fill="#000000" fill-rule="evenodd" /><path transform="matrix(1 0 0 -1 0 942)" d="M887.67 735.83L889.67 735.83L889.67 735.83L889.67 738.83L889.67 738.83L887.67 738.83z" stroke="none" fill="#000000" fill-rule="evenodd" /><path transform="matrix(1 0 0 -1 0 942)" d="M887.67 711.83L889.67 711.83L889.67 711.83L889.67 714.83L889.67 714.83L887.67 714.83z" stroke="none" fill="#000000" fill-rule="evenodd" /><path transform="matrix(1 0 0 -1 0 942)" d="M887.67 687.81L889.67 687.81L889.67 687.81L889.67 690.81L889.67 690.81L887.67 690.81z" stroke="none" fill="#000000" fill-rule="evenodd" /><path transform="matrix(1 0 0 -1 0 942)" d="M887.67 663.81L889.67 663.81L889.67 663.81L889.67 666.81L889.67 666.81L887.67 666.81z" stroke="none" fill="#000000" fill-rule="evenodd" /><path transform="matrix(1 0 0 -1 0 942)" d="M887.67 639.81L889.67 639.81L889.67 639.81L889.67 642.81L889.67 642.81L887.67 642.81z" stroke="none" fill="#000000" fill-rule="evenodd" /><path transform="matrix(1 0 0 -1 0 942)" d="M887.67 615.81L889.67 615.81L889.67 615.81L889.67 618.81L889.67 618.81L887.67 618.81z" stroke="none" fill="#000000" fill-rule="evenodd" /><path transform="matrix(1 0 0 -1 0 942)" d="M887.67 591.81L889.67 591.81L889.67 591.81L889.67 594.81L889.67 594.81L887.67 594.81z" stroke="none" fill="#000000" fill-rule="evenodd" /><path transform="matrix(1 0 0 -1 0 942)" d="M887.67 873.86L889.67 873.86L889.67 873.86L889.67 876.86L889.67 876.86L887.67 876.86z" stroke="none" fill="#000000" fill-rule="evenodd" /><path transform="matrix(1 0 0 -1 0 942)" d="M887.67 849.83L889.67 849.83L889.67 849.83L889.67 852.83L889.67 852.83L887.67 852.83z" stroke="none" fill="#000000" fill-rule="evenodd" /><path transform="matrix(1 0 0 -1 0 942)" d="M887.67 825.83L889.67 825.83L889.67 825.83L889.67 828.83L889.67 828.83L887.67 828.83z" stroke="none" fill="#000000" fill-rule="evenodd" /><path transform="matrix(1 0 0 -1 0 942)" d="M887.67 801.83L889.67 801.83L889.67 801.83L889.67 804.83L889.67 804.83L887.67 804.83z" stroke="none" fill="#000000" fill-rule="evenodd" /><path transform="matrix(1 0 0 -1 0 942)" d="M887.67 777.83L889.67 777.83L889.67 777.83L889.67 780.83L889.67 780.83L887.67 780.83z" stroke="none" fill="#000000" fill-rule="evenodd" /><path transform="matrix(1 0 0 -1 0 942)" d="M887.67 753.83L889.67 753.83L889.67 753.83L889.67 756.83L889.67 756.83L887.67 756.83z" stroke="none" fill="#000000" fill-rule="evenodd" /><path transform="matrix(1 0 0 -1 0 942)" d="M887.67 729.83L889.67 729.83L889.67 729.83L889.67 732.83L889.67 732.83L887.67 732.83z" stroke="none" fill="#000000" fill-rule="evenodd" /><path transform="matrix(1 0 0 -1 0 942)" d="M887.67 705.83L889.67 705.83L889.67 705.83L889.67 708.83L889.67 708.83L887.67 708.83z" stroke="none" fill="#000000" fill-rule="evenodd" /><path transform="matrix(1 0 0 -1 0 942)" d="M887.67 681.81L889.67 681.81L889.67 681.81L889.67 684.81L889.67 684.81L887.67 684.81z" stroke="none" fill="#000000" fill-rule="evenodd" /><path transform="matrix(1 0 0 -1 0 942)" d="M887.67 657.81L889.67 657.81L889.67 657.81L889.67 660.81L889.67 660.81L887.67 660.81z" stroke="none" fill="#000000" fill-rule="evenodd" /><path transform="matrix(1 0 0 -1 0 942)" d="M887.67 633.81L889.67 633.81L889.67 633.81L889.67 636.81L889.67 636.81L887.67 636.81z" stroke="none" fill="#000000" fill-rule="evenodd" /><path transform="matrix(1 0 0 -1 0 942)" d="M887.67 609.81L889.67 609.81L889.67 609.81L889.67 612.81L889.67 612.81L887.67 612.81z" stroke="none" fill="#000000" fill-rule="evenodd" /><path transform="matrix(1 0 0 -1 0 942)" d="M887.67 585.81L889.67 585.81L889.67 585.81L889.67 588.81L889.67 588.81L887.67 588.81z" stroke="none" fill="#000000" fill-rule="evenodd" /><path transform="matrix(1 0 0 -1 0 942)" d="M1177.4 861.83L1179.4 861.83L1179.4 861.83L1179.4 870.8538L1179.4 870.8538L1177.4 870.8538z" stroke="none" fill="#000000" fill-rule="evenodd" /><path transform="matrix(1 0 0 -1 0 942)" d="M1177.4 837.83L1179.4 837.83L1179.4 837.83L1179.4 846.83L1179.4 846.83L1177.4 846.83z" stroke="none" fill="#000000" fill-rule="evenodd" /><path transform="matrix(1 0 0 -1 0 942)" d="M1177.4 813.83L1179.4 813.83L1179.4 813.83L1179.4 822.83L1179.4 822.83L1177.4 822.83z" stroke="none" fill="#000000" fill-rule="evenodd" /><path transform="matrix(1 0 0 -1 0 942)" d="M1177.4 789.83L1179.4 789.83L1179.4 789.83L1179.4 798.83L1179.4 798.83L1177.4 798.83z" stroke="none" fill="#000000" fill-rule="evenodd" /><path transform="matrix(1 0 0 -1 0 942)" d="M1177.4 765.83L1179.4 765.83L1179.4 765.83L1179.4 774.83L1179.4 774.83L1177.4 774.83z" stroke="none" fill="#000000" fill-rule="evenodd" /><path transform="matrix(1 0 0 -1 0 942)" d="M1177.4 741.83L1179.4 741.83L1179.4 741.83L1179.4 750.83L1179.4 750.83L1177.4 750.83z" stroke="none" fill="#000000" fill-rule="evenodd" /><path transform="matrix(1 0 0 -1 0 942)" d="M1177.4 717.83L1179.4 717.83L1179.4 717.83L1179.4 726.83L1179.4 726.83L1177.4 726.83z" stroke="none" fill="#000000" fill-rule="evenodd" /><path transform="matrix(1 0 0 -1 0 942)" d="M1177.4 693.81L1179.4 693.81L1179.4 693.81L1179.4 702.81L1179.4 702.81L1177.4 702.81z" stroke="none" fill="#000000" fill-rule="evenodd" /><path transform="matrix(1 0 0 -1 0 942)" d="M1177.4 669.81L1179.4 669.81L1179.4 669.81L1179.4 678.81L1179.4 678.81L1177.4 678.81z" stroke="none" fill="#000000" fill-rule="evenodd" /><path transform="matrix(1 0 0 -1 0 942)" d="M1177.4 645.81L1179.4 645.81L1179.4 645.81L1179.4 654.81L1179.4 654.81L1177.4 654.81z" stroke="none" fill="#000000" fill-rule="evenodd" /><path transform="matrix(1 0 0 -1 0 942)" d="M1177.4 621.81L1179.4 621.81L1179.4 621.81L1179.4 630.81L1179.4 630.81L1177.4 630.81z" stroke="none" fill="#000000" fill-rule="evenodd" /><path transform="matrix(1 0 0 -1 0 942)" d="M1177.4 597.81L1179.4 597.81L1179.4 597.81L1179.4 606.81L1179.4 606.81L1177.4 606.81z" stroke="none" fill="#000000" fill-rule="evenodd" /><path transform="matrix(1 0 0 -1 0 942)" d="M1177.4 574.52L1179.4 574.52L1179.4 574.52L1179.4 582.8057L1179.4 582.8057L1177.4 582.8057z" stroke="none" fill="#000000" fill-rule="evenodd" /><path transform="matrix(1 0 0 -1 0 942)" d="M1177.4 855.83L1179.4 855.83L1179.4 855.83L1179.4 858.83L1179.4 858.83L1177.4 858.83z" stroke="none" fill="#000000" fill-rule="evenodd" /><path transform="matrix(1 0 0 -1 0 942)" d="M1177.4 831.83L1179.4 831.83L1179.4 831.83L1179.4 834.83L1179.4 834.83L1177.4 834.83z" stroke="none" fill="#000000" fill-rule="evenodd" /><path transform="matrix(1 0 0 -1 0 942)" d="M1177.4 807.83L1179.4 807.83L1179.4 807.83L1179.4 810.83L1179.4 810.83L1177.4 810.83z" stroke="none" fill="#000000" fill-rule="evenodd" /><path transform="matrix(1 0 0 -1 0 942)" d="M1177.4 783.83L1179.4 783.83L1179.4 783.83L1179.4 786.83L1179.4 786.83L1177.4 786.83z" stroke="none" fill="#000000" fill-rule="evenodd" /><path transform="matrix(1 0 0 -1 0 942)" d="M1177.4 759.83L1179.4 759.83L1179.4 759.83L1179.4 762.83L1179.4 762.83L1177.4 762.83z" stroke="none" fill="#000000" fill-rule="evenodd" /><path transform="matrix(1 0 0 -1 0 942)" d="M1177.4 735.83L1179.4 735.83L1179.4 735.83L1179.4 738.83L1179.4 738.83L1177.4 738.83z" stroke="none" fill="#000000" fill-rule="evenodd" /><path transform="matrix(1 0 0 -1 0 942)" d="M1177.4 711.83L1179.4 711.83L1179.4 711.83L1179.4 714.83L1179.4 714.83L1177.4 714.83z" stroke="none" fill="#000000" fill-rule="evenodd" /><path transform="matrix(1 0 0 -1 0 942)" d="M1177.4 687.81L1179.4 687.81L1179.4 687.81L1179.4 690.81L1179.4 690.81L1177.4 690.81z" stroke="none" fill="#000000" fill-rule="evenodd" /><path transform="matrix(1 0 0 -1 0 942)" d="M1177.4 663.81L1179.4 663.81L1179.4 663.81L1179.4 666.81L1179.4 666.81L1177.4 666.81z" stroke="none" fill="#000000" fill-rule="evenodd" /><path transform="matrix(1 0 0 -1 0 942)" d="M1177.4 639.81L1179.4 639.81L1179.4 639.81L1179.4 642.81L1179.4 642.81L1177.4 642.81z" stroke="none" fill="#000000" fill-rule="evenodd" /><path transform="matrix(1 0 0 -1 0 942)" d="M1177.4 615.81L1179.4 615.81L1179.4 615.81L1179.4 618.81L1179.4 618.81L1177.4 618.81z" stroke="none" fill="#000000" fill-rule="evenodd" /><path transform="matrix(1 0 0 -1 0 942)" d="M1177.4 591.81L1179.4 591.81L1179.4 591.81L1179.4 594.81L1179.4 594.81L1177.4 594.81z" stroke="none" fill="#000000" fill-rule="evenodd" /><path transform="matrix(1 0 0 -1 0 942)" d="M1177.4 873.86L1179.4 873.86L1179.4 873.86L1179.4 876.86L1179.4 876.86L1177.4 876.86z" stroke="none" fill="#000000" fill-rule="evenodd" /><path transform="matrix(1 0 0 -1 0 942)" d="M1177.4 849.83L1179.4 849.83L1179.4 849.83L1179.4 852.83L1179.4 852.83L1177.4 852.83z" stroke="none" fill="#000000" fill-rule="evenodd" /><path transform="matrix(1 0 0 -1 0 942)" d="M1177.4 825.83L1179.4 825.83L1179.4 825.83L1179.4 828.83L1179.4 828.83L1177.4 828.83z" stroke="none" fill="#000000" fill-rule="evenodd" /><path transform="matrix(1 0 0 -1 0 942)" d="M1177.4 801.83L1179.4 801.83L1179.4 801.83L1179.4 804.83L1179.4 804.83L1177.4 804.83z" stroke="none" fill="#000000" fill-rule="evenodd" /><path transform="matrix(1 0 0 -1 0 942)" d="M1177.4 777.83L1179.4 777.83L1179.4 777.83L1179.4 780.83L1179.4 780.83L1177.4 780.83z" stroke="none" fill="#000000" fill-rule="evenodd" /><path transform="matrix(1 0 0 -1 0 942)" d="M1177.4 753.83L1179.4 753.83L1179.4 753.83L1179.4 756.83L1179.4 756.83L1177.4 756.83z" stroke="none" fill="#000000" fill-rule="evenodd" /><path transform="matrix(1 0 0 -1 0 942)" d="M1177.4 729.83L1179.4 729.83L1179.4 729.83L1179.4 732.83L1179.4 732.83L1177.4 732.83z" stroke="none" fill="#000000" fill-rule="evenodd" /><path transform="matrix(1 0 0 -1 0 942)" d="M1177.4 705.83L1179.4 705.83L1179.4 705.83L1179.4 708.83L1179.4 708.83L1177.4 708.83z" stroke="none" fill="#000000" fill-rule="evenodd" /><path transform="matrix(1 0 0 -1 0 942)" d="M1177.4 681.81L1179.4 681.81L1179.4 681.81L1179.4 684.81L1179.4 684.81L1177.4 684.81z" stroke="none" fill="#000000" fill-rule="evenodd" /><path transform="matrix(1 0 0 -1 0 942)" d="M1177.4 657.81L1179.4 657.81L1179.4 657.81L1179.4 660.81L1179.4 660.81L1177.4 660.81z" stroke="none" fill="#000000" fill-rule="evenodd" /><path transform="matrix(1 0 0 -1 0 942)" d="M1177.4 633.81L1179.4 633.81L1179.4 633.81L1179.4 636.81L1179.4 636.81L1177.4 636.81z" stroke="none" fill="#000000" fill-rule="evenodd" /><path transform="matrix(1 0 0 -1 0 942)" d="M1177.4 609.81L1179.4 609.81L1179.4 609.81L1179.4 612.81L1179.4 612.81L1177.4 612.81z" stroke="none" fill="#000000" fill-rule="evenodd" /><path transform="matrix(1 0 0 -1 0 942)" d="M1177.4 585.81L1179.4 585.81L1179.4 585.81L1179.4 588.81L1179.4 588.81L1177.4 588.81z" stroke="none" fill="#000000" fill-rule="evenodd" /><path transform="matrix(1 0 0 -1 0 942)" d="M1415.21 877.5L1415.21 574.6" stroke="#9BC2E6" stroke-width="0.14286" stroke-linecap="square" fill="none" /><path transform="matrix(1 0 0 -1 0 942)" d="M1415.14 574.52L1416.14 574.52L1416.14 574.52L1416.14 877.57L1416.14 877.57L1415.14 877.57z" stroke="none" fill="#9BC2E6" fill-rule="evenodd" /><path transform="matrix(1 0 0 -1 0 942)" d="M1179.48 878.5L1416.07 878.5" stroke="#9BC2E6" stroke-width="0.14286" stroke-linecap="square" fill="none" /><path transform="matrix(1 0 0 -1 0 942)" d="M1179.4 877.57L1416.14 877.57L1416.14 877.57L1416.14 878.57L1416.14 878.57L1179.4 878.57z" stroke="none" fill="#9BC2E6" fill-rule="evenodd" /><path transform="matrix(1 0 0 -1 0 942)" d="M1179.48 864.07L1416.07 864.07" stroke="#9BC2E6" stroke-width="0.14286" stroke-linecap="square" fill="none" /><path transform="matrix(1 0 0 -1 0 942)" d="M1179.4 863.12L1416.14 863.12L1416.14 863.12L1416.14 864.1438L1416.14 864.1438L1179.4 864.1438z" stroke="none" fill="#9BC2E6" fill-rule="evenodd" /><path transform="matrix(1 0 0 -1 0 942)" d="M1179.48 849.62L1416.07 849.62" stroke="#9BC2E6" stroke-width="0.14286" stroke-linecap="square" fill="none" /><path transform="matrix(1 0 0 -1 0 942)" d="M1179.4 848.69L1416.14 848.69L1416.14 848.69L1416.14 849.69L1416.14 849.69L1179.4 849.69z" stroke="none" fill="#9BC2E6" fill-rule="evenodd" /><path transform="matrix(1 0 0 -1 0 942)" d="M1179.48 835.19L1416.07 835.19" stroke="#9BC2E6" stroke-width="0.14286" stroke-linecap="square" fill="none" /><path transform="matrix(1 0 0 -1 0 942)" d="M1179.4 834.26L1416.14 834.26L1416.14 834.26L1416.14 835.26L1416.14 835.26L1179.4 835.26z" stroke="none" fill="#9BC2E6" fill-rule="evenodd" /><path transform="matrix(1 0 0 -1 0 942)" d="M1179.48 820.76L1416.07 820.76" stroke="#9BC2E6" stroke-width="0.14286" stroke-linecap="square" fill="none" /><path transform="matrix(1 0 0 -1 0 942)" d="M1179.4 819.83L1416.14 819.83L1416.14 819.83L1416.14 820.83L1416.14 820.83L1179.4 820.83z" stroke="none" fill="#9BC2E6" fill-rule="evenodd" /><path transform="matrix(1 0 0 -1 0 942)" d="M1179.48 806.33L1416.07 806.33" stroke="#9BC2E6" stroke-width="0.14286" stroke-linecap="square" fill="none" /><path transform="matrix(1 0 0 -1 0 942)" d="M1179.4 805.4L1416.14 805.4L1416.14 805.4L1416.14 806.4L1416.14 806.4L1179.4 806.4z" stroke="none" fill="#9BC2E6" fill-rule="evenodd" /><path transform="matrix(1 0 0 -1 0 942)" d="M1179.48 791.9L1416.07 791.9" stroke="#9BC2E6" stroke-width="0.14286" stroke-linecap="square" fill="none" /><path transform="matrix(1 0 0 -1 0 942)" d="M1179.4 790.98L1416.14 790.98L1416.14 790.98L1416.14 791.98L1416.14 791.98L1179.4 791.98z" stroke="none" fill="#9BC2E6" fill-rule="evenodd" /><path transform="matrix(1 0 0 -1 0 942)" d="M1179.48 777.48L1416.07 777.48" stroke="#9BC2E6" stroke-width="0.14286" stroke-linecap="square" fill="none" /><path transform="matrix(1 0 0 -1 0 942)" d="M1179.4 776.55L1416.14 776.55L1416.14 776.55L1416.14 777.55L1416.14 777.55L1179.4 777.55z" stroke="none" fill="#9BC2E6" fill-rule="evenodd" /><path transform="matrix(1 0 0 -1 0 942)" d="M1179.48 763.05L1416.07 763.05" stroke="#9BC2E6" stroke-width="0.14286" stroke-linecap="square" fill="none" /><path transform="matrix(1 0 0 -1 0 942)" d="M1179.4 762.12L1416.14 762.12L1416.14 762.12L1416.14 763.12L1416.14 763.12L1179.4 763.12z" stroke="none" fill="#9BC2E6" fill-rule="evenodd" /><path transform="matrix(1 0 0 -1 0 942)" d="M1179.48 748.62L1416.07 748.62" stroke="#9BC2E6" stroke-width="0.14286" stroke-linecap="square" fill="none" /><path transform="matrix(1 0 0 -1 0 942)" d="M1179.4 747.69L1416.14 747.69L1416.14 747.69L1416.14 748.69L1416.14 748.69L1179.4 748.69z" stroke="none" fill="#9BC2E6" fill-rule="evenodd" /><path transform="matrix(1 0 0 -1 0 942)" d="M1179.48 734.19L1416.07 734.19" stroke="#9BC2E6" stroke-width="0.14286" stroke-linecap="square" fill="none" /><path transform="matrix(1 0 0 -1 0 942)" d="M1179.4 733.26L1416.14 733.26L1416.14 733.26L1416.14 734.26L1416.14 734.26L1179.4 734.26z" stroke="none" fill="#9BC2E6" fill-rule="evenodd" /><path transform="matrix(1 0 0 -1 0 942)" d="M1179.48 719.76L1416.07 719.76" stroke="#9BC2E6" stroke-width="0.14286" stroke-linecap="square" fill="none" /><path transform="matrix(1 0 0 -1 0 942)" d="M1179.4 718.83L1416.14 718.83L1416.14 718.83L1416.14 719.83L1416.14 719.83L1179.4 719.83z" stroke="none" fill="#9BC2E6" fill-rule="evenodd" /><path transform="matrix(1 0 0 -1 0 942)" d="M1179.48 705.33L1416.07 705.33" stroke="#9BC2E6" stroke-width="0.14286" stroke-linecap="square" fill="none" /><path transform="matrix(1 0 0 -1 0 942)" d="M1179.4 704.38L1416.14 704.38L1416.14 704.38L1416.14 705.4038L1416.14 705.4038L1179.4 705.4038z" stroke="none" fill="#9BC2E6" fill-rule="evenodd" /><path transform="matrix(1 0 0 -1 0 942)" d="M1179.48 690.88L1416.07 690.88" stroke="#9BC2E6" stroke-width="0.14286" stroke-linecap="square" fill="none" /><path transform="matrix(1 0 0 -1 0 942)" d="M1179.4 689.95L1416.14 689.95L1416.14 689.95L1416.14 690.95L1416.14 690.95L1179.4 690.95z" stroke="none" fill="#9BC2E6" fill-rule="evenodd" /><path transform="matrix(1 0 0 -1 0 942)" d="M1179.48 676.45L1416.07 676.45" stroke="#9BC2E6" stroke-width="0.14286" stroke-linecap="square" fill="none" /><path transform="matrix(1 0 0 -1 0 942)" d="M1179.4 675.52L1416.14 675.52L1416.14 675.52L1416.14 676.52L1416.14 676.52L1179.4 676.52z" stroke="none" fill="#9BC2E6" fill-rule="evenodd" /><path transform="matrix(1 0 0 -1 0 942)" d="M1179.48 662.02L1416.07 662.02" stroke="#9BC2E6" stroke-width="0.14286" stroke-linecap="square" fill="none" /><path transform="matrix(1 0 0 -1 0 942)" d="M1179.4 661.1L1416.14 661.1L1416.14 661.1L1416.14 662.1L1416.14 662.1L1179.4 662.1z" stroke="none" fill="#9BC2E6" fill-rule="evenodd" /><path transform="matrix(1 0 0 -1 0 942)" d="M1179.48 647.6L1416.07 647.6" stroke="#9BC2E6" stroke-width="0.14286" stroke-linecap="square" fill="none" /><path transform="matrix(1 0 0 -1 0 942)" d="M1179.4 646.67L1416.14 646.67L1416.14 646.67L1416.14 647.67L1416.14 647.67L1179.4 647.67z" stroke="none" fill="#9BC2E6" fill-rule="evenodd" /><path transform="matrix(1 0 0 -1 0 942)" d="M1179.48 633.17L1416.07 633.17" stroke="#9BC2E6" stroke-width="0.14286" stroke-linecap="square" fill="none" /><path transform="matrix(1 0 0 -1 0 942)" d="M1179.4 632.24L1416.14 632.24L1416.14 632.24L1416.14 633.24L1416.14 633.24L1179.4 633.24z" stroke="none" fill="#9BC2E6" fill-rule="evenodd" /><path transform="matrix(1 0 0 -1 0 942)" d="M1179.48 618.74L1416.07 618.74" stroke="#9BC2E6" stroke-width="0.14286" stroke-linecap="square" fill="none" /><path transform="matrix(1 0 0 -1 0 942)" d="M1179.4 617.81L1416.14 617.81L1416.14 617.81L1416.14 618.81L1416.14 618.81L1179.4 618.81z" stroke="none" fill="#9BC2E6" fill-rule="evenodd" /><path transform="matrix(1 0 0 -1 0 942)" d="M1179.48 604.31L1416.07 604.31" stroke="#9BC2E6" stroke-width="0.14286" stroke-linecap="square" fill="none" /><path transform="matrix(1 0 0 -1 0 942)" d="M1179.4 603.38L1416.14 603.38L1416.14 603.38L1416.14 604.38L1416.14 604.38L1179.4 604.38z" stroke="none" fill="#9BC2E6" fill-rule="evenodd" /><path transform="matrix(1 0 0 -1 0 942)" d="M1179.48 589.88L1416.07 589.88" stroke="#9BC2E6" stroke-width="0.14286" stroke-linecap="square" fill="none" /><path transform="matrix(1 0 0 -1 0 942)" d="M1179.4 588.95L1416.14 588.95L1416.14 588.95L1416.14 589.95L1416.14 589.95L1179.4 589.95z" stroke="none" fill="#9BC2E6" fill-rule="evenodd" /><path transform="matrix(1 0 0 -1 0 942)" d="M1179.48 575.45L1416.07 575.45" stroke="#9BC2E6" stroke-width="0.14286" stroke-linecap="square" fill="none" /><path transform="matrix(1 0 0 -1 0 942)" d="M1179.4 574.52L1416.14 574.52L1416.14 574.52L1416.14 575.52L1416.14 575.52L1179.4 575.52z" stroke="none" fill="#9BC2E6" fill-rule="evenodd" /></g><path transform="matrix(1 0 0 -1 0 942)" d="M21.5 878.5L1416.07 878.5" stroke="#000000" stroke-width="0.14286" stroke-linecap="square" fill="none" /><path transform="matrix(1 0 0 -1 0 942)" d="M21.429 877.57L1416.139 877.57L1416.139 877.57L1416.139 878.57L1416.139 878.57L21.429 878.57z" stroke="none" fill="#000000" fill-rule="evenodd" /><path transform="matrix(1 0 0 -1 0 942)" d="M21.5 878.5L21.5 574.6" stroke="#000000" stroke-width="0.14286" stroke-linecap="square" fill="none" /><path transform="matrix(1 0 0 -1 0 942)" d="M21.429 574.52L22.429 574.52L22.429 574.52L22.429 878.57L22.429 878.57L21.429 878.57z" stroke="none" fill="#000000" fill-rule="evenodd" /><path transform="matrix(1 0 0 -1 0 942)" d="M21.5 575.45L1416.07 575.45" stroke="#000000" stroke-width="0.14286" stroke-linecap="square" fill="none" /><path transform="matrix(1 0 0 -1 0 942)" d="M21.429 574.52L1416.139 574.52L1416.139 574.52L1416.139 575.52L1416.139 575.52L21.429 575.52z" stroke="none" fill="#000000" fill-rule="evenodd" /><path transform="matrix(1 0 0 -1 0 942)" d="M1415.21 878.5L1415.21 574.6" stroke="#000000" stroke-width="0.14286" stroke-linecap="square" fill="none" /><path transform="matrix(1 0 0 -1 0 942)" d="M1415.14 574.52L1416.14 574.52L1416.14 574.52L1416.14 878.57L1416.14 878.57L1415.14 878.57z" stroke="none" fill="#000000" fill-rule="evenodd" /></g></g></g></svg>